<?xml version="1.0" encoding="UTF-8"?>
<svg id="_2" data-name="2" xmlns="http://www.w3.org/2000/svg" viewBox="0 0 513 513">
  <defs>
    <style>
      .cls-1 {
        fill: #03989e;
      }

      .cls-1, .cls-2 {
        stroke-width: 0px;
      }

      .cls-3 {
        fill: #242626;
        stroke: #000;
        stroke-miterlimit: 10;
      }

      .cls-2 {
        fill: #ae7f22;
      }
    </style>
  </defs>
  <rect class="cls-3" x=".5" y=".5" width="512" height="512"/>
  <path class="cls-1" d="M512.5,215.09v32.17h-14.86c.03.99.14,1.96.14,2.94.02,30.69-12.48,58.67-32.62,78.77-20.1,20.11-48.07,32.62-78.75,32.62-61.53,0-111.38-49.87-111.39-111.39,0-.83.1-1.62.1-2.44-5.74-2.2-11.98-3.51-18.62-3.51s-12.87,1.31-18.62,3.51c0,.82.1,1.61.1,2.44-.01,61.52-49.86,111.38-111.39,111.39-61.51,0-111.37-49.87-111.37-111.39,0-.98.11-1.95.14-2.94H.5v-32.17h20.45c5.53-16.64,14.8-31.59,26.89-43.66,20.1-20.12,48.07-32.62,78.75-32.62,49.44.02,91.27,32.22,105.83,76.77,7.64-2.25,15.72-3.5,24.08-3.5s16.44,1.25,24.08,3.5c14.56-44.55,56.39-76.75,105.83-76.77,30.68,0,58.65,12.5,78.75,32.62,12.09,12.07,21.36,27.02,26.89,43.66h20.45ZM457.58,250.2c-.02-19.72-7.94-37.39-20.85-50.33-12.95-12.92-30.61-20.84-50.32-20.84s-37.39,7.92-50.35,20.84c-12.9,12.94-20.83,30.61-20.84,50.33.01,19.72,7.94,37.37,20.84,50.33,12.96,12.9,30.63,20.84,50.35,20.84s37.37-7.94,50.32-20.84c12.91-12.96,20.83-30.61,20.85-50.33ZM197.78,250.2c0-19.74-7.94-37.39-20.84-50.33-12.96-12.92-30.63-20.84-50.35-20.84s-37.37,7.92-50.32,20.84c-12.91,12.94-20.83,30.61-20.85,50.33.02,19.72,7.94,37.37,20.85,50.33,12.95,12.9,30.61,20.84,50.32,20.84s37.4-7.94,50.35-20.84c12.9-12.96,20.83-30.61,20.84-50.33Z"/>
  <polygon class="cls-2" points="256.5 331.19 320.74 378.63 192.26 378.63 256.5 331.19"/>
</svg>