<svg width="420" height="110" viewBox="0 0 420 110" fill="none" xmlns="http://www.w3.org/2000/svg">
<path d="M7.15 36.2V20.76H8.61V22.88C9.02333 22.1133 9.6 21.5167 10.34 21.09C11.0867 20.6567 11.9133 20.44 12.82 20.44C13.8 20.44 14.6767 20.6767 15.45 21.15C16.2233 21.6233 16.8333 22.27 17.28 23.09C17.7267 23.9033 17.95 24.8333 17.95 25.88C17.95 26.9133 17.7267 27.8433 17.28 28.67C16.84 29.49 16.2333 30.1367 15.46 30.61C14.6933 31.0833 13.82 31.32 12.84 31.32C11.9467 31.32 11.1267 31.1 10.38 30.66C9.63333 30.22 9.04333 29.6133 8.61 28.84V36.2H7.15ZM12.5 30.05C13.2667 30.05 13.9467 29.8733 14.54 29.52C15.1333 29.16 15.5967 28.6667 15.93 28.04C16.27 27.4133 16.44 26.6967 16.44 25.89C16.44 25.0767 16.27 24.3567 15.93 23.73C15.59 23.0967 15.1233 22.6033 14.53 22.25C13.9433 21.89 13.2667 21.71 12.5 21.71C11.7333 21.71 11.0533 21.89 10.46 22.25C9.86667 22.6033 9.4 23.0933 9.06 23.72C8.72 24.3467 8.55 25.0667 8.55 25.88C8.55 26.6867 8.72 27.4067 9.06 28.04C9.4 28.6667 9.86667 29.16 10.46 29.52C11.06 29.8733 11.74 30.05 12.5 30.05ZM26.415 31.32C25.3483 31.32 24.385 31.09 23.525 30.63C22.6717 30.17 21.995 29.53 21.495 28.71C20.995 27.89 20.745 26.9467 20.745 25.88C20.745 24.8067 20.995 23.8633 21.495 23.05C21.995 22.23 22.6717 21.59 23.525 21.13C24.3783 20.67 25.3417 20.44 26.415 20.44C27.4817 20.44 28.4417 20.67 29.295 21.13C30.155 21.59 30.835 22.23 31.335 23.05C31.835 23.8633 32.085 24.8067 32.085 25.88C32.085 26.9467 31.835 27.89 31.335 28.71C30.835 29.53 30.155 30.17 29.295 30.63C28.4417 31.09 27.4817 31.32 26.415 31.32ZM26.415 30.02C27.215 30.02 27.9283 29.8433 28.555 29.49C29.1817 29.1367 29.675 28.65 30.035 28.03C30.395 27.4033 30.575 26.6867 30.575 25.88C30.575 25.0733 30.395 24.36 30.035 23.74C29.675 23.1133 29.1817 22.6233 28.555 22.27C27.9283 21.9167 27.215 21.74 26.415 21.74C25.615 21.74 24.9017 21.9167 24.275 22.27C23.6483 22.6233 23.155 23.1133 22.795 23.74C22.435 24.36 22.255 25.0733 22.255 25.88C22.255 26.68 22.435 27.3933 22.795 28.02C23.155 28.6467 23.6483 29.1367 24.275 29.49C24.9017 29.8433 25.615 30.02 26.415 30.02ZM35.568 31V20.76H37.028V22.27C37.3546 21.67 37.7746 21.2167 38.288 20.91C38.808 20.5967 39.408 20.44 40.088 20.44C40.388 20.44 40.6913 20.4733 40.998 20.54C41.3113 20.6067 41.5813 20.6933 41.808 20.8L41.208 22.03C41.008 21.93 40.778 21.8533 40.518 21.8C40.2646 21.7467 40.0213 21.72 39.788 21.72C39.3146 21.72 38.868 21.84 38.448 22.08C38.028 22.32 37.6846 22.6333 37.418 23.02C37.158 23.4 37.028 23.8067 37.028 24.24V31H35.568ZM47.0438 31.32C46.2771 31.32 45.6804 31.0633 45.2538 30.55C44.8338 30.03 44.6238 29.3 44.6238 28.36V21.86H43.5838V20.76H44.6238V16.93H46.0838V20.76H48.6338V21.86H46.0838V28.28C46.0838 28.8467 46.1938 29.28 46.4138 29.58C46.6338 29.88 46.9471 30.03 47.3538 30.03C47.7471 30.03 48.0938 29.92 48.3938 29.7L48.7638 30.86C48.5371 31 48.2704 31.11 47.9638 31.19C47.6571 31.2767 47.3504 31.32 47.0438 31.32ZM52.1647 31V21.86H51.1347V20.76H52.1647V17.09C52.1647 16.3233 52.2747 15.6733 52.4947 15.14C52.7147 14.6067 53.0347 14.2 53.4547 13.92C53.8747 13.64 54.3914 13.5 55.0047 13.5C55.3847 13.5 55.738 13.5533 56.0647 13.66C56.3914 13.76 56.678 13.9067 56.9247 14.1L56.4147 15.14C56.108 14.9 55.7214 14.78 55.2547 14.78C54.8814 14.78 54.5747 14.8733 54.3347 15.06C54.0947 15.24 53.9147 15.5 53.7947 15.84C53.6814 16.18 53.6247 16.5833 53.6247 17.05V20.76H56.2347V21.86H53.6247V31H52.1647ZM64.0908 31.32C63.0241 31.32 62.0608 31.09 61.2008 30.63C60.3474 30.17 59.6708 29.53 59.1708 28.71C58.6708 27.89 58.4208 26.9467 58.4208 25.88C58.4208 24.8067 58.6708 23.8633 59.1708 23.05C59.6708 22.23 60.3474 21.59 61.2008 21.13C62.0541 20.67 63.0174 20.44 64.0908 20.44C65.1574 20.44 66.1174 20.67 66.9708 21.13C67.8308 21.59 68.5108 22.23 69.0108 23.05C69.5108 23.8633 69.7608 24.8067 69.7608 25.88C69.7608 26.9467 69.5108 27.89 69.0108 28.71C68.5108 29.53 67.8308 30.17 66.9708 30.63C66.1174 31.09 65.1574 31.32 64.0908 31.32ZM64.0908 30.02C64.8908 30.02 65.6041 29.8433 66.2308 29.49C66.8574 29.1367 67.3508 28.65 67.7108 28.03C68.0708 27.4033 68.2508 26.6867 68.2508 25.88C68.2508 25.0733 68.0708 24.36 67.7108 23.74C67.3508 23.1133 66.8574 22.6233 66.2308 22.27C65.6041 21.9167 64.8908 21.74 64.0908 21.74C63.2908 21.74 62.5774 21.9167 61.9508 22.27C61.3241 22.6233 60.8308 23.1133 60.4708 23.74C60.1108 24.36 59.9308 25.0733 59.9308 25.88C59.9308 26.68 60.1108 27.3933 60.4708 28.02C60.8308 28.6467 61.3241 29.1367 61.9508 29.49C62.5774 29.8433 63.2908 30.02 64.0908 30.02ZM73.2438 31V13.8H74.7038V31H73.2438ZM78.9955 31V20.76H80.4555V31H78.9955ZM79.7355 18.71C79.5555 18.71 79.3921 18.6667 79.2455 18.58C79.1055 18.4933 78.9921 18.3767 78.9055 18.23C78.8188 18.0833 78.7755 17.9233 78.7755 17.75C78.7755 17.5767 78.8188 17.42 78.9055 17.28C78.9921 17.1333 79.1055 17.0167 79.2455 16.93C79.3921 16.8433 79.5555 16.8 79.7355 16.8C79.9088 16.8 80.0655 16.8433 80.2055 16.93C80.3455 17.0167 80.4588 17.13 80.5455 17.27C80.6388 17.41 80.6855 17.57 80.6855 17.75C80.6855 17.9233 80.6388 18.0833 80.5455 18.23C80.4588 18.3767 80.3455 18.4933 80.2055 18.58C80.0655 18.6667 79.9088 18.71 79.7355 18.71ZM89.6572 31.32C88.5905 31.32 87.6272 31.09 86.7672 30.63C85.9139 30.17 85.2372 29.53 84.7372 28.71C84.2372 27.89 83.9872 26.9467 83.9872 25.88C83.9872 24.8067 84.2372 23.8633 84.7372 23.05C85.2372 22.23 85.9139 21.59 86.7672 21.13C87.6205 20.67 88.5839 20.44 89.6572 20.44C90.7239 20.44 91.6839 20.67 92.5372 21.13C93.3972 21.59 94.0772 22.23 94.5772 23.05C95.0772 23.8633 95.3272 24.8067 95.3272 25.88C95.3272 26.9467 95.0772 27.89 94.5772 28.71C94.0772 29.53 93.3972 30.17 92.5372 30.63C91.6839 31.09 90.7239 31.32 89.6572 31.32ZM89.6572 30.02C90.4572 30.02 91.1705 29.8433 91.7972 29.49C92.4239 29.1367 92.9172 28.65 93.2772 28.03C93.6372 27.4033 93.8172 26.6867 93.8172 25.88C93.8172 25.0733 93.6372 24.36 93.2772 23.74C92.9172 23.1133 92.4239 22.6233 91.7972 22.27C91.1705 21.9167 90.4572 21.74 89.6572 21.74C88.8572 21.74 88.1439 21.9167 87.5172 22.27C86.8905 22.6233 86.3972 23.1133 86.0372 23.74C85.6772 24.36 85.4972 25.0733 85.4972 25.88C85.4972 26.68 85.6772 27.3933 86.0372 28.02C86.3972 28.6467 86.8905 29.1367 87.5172 29.49C88.1439 29.8433 88.8572 30.02 89.6572 30.02ZM108.876 31.32C107.809 31.32 106.846 31.09 105.986 30.63C105.133 30.17 104.456 29.53 103.956 28.71C103.456 27.89 103.206 26.9467 103.206 25.88C103.206 24.8067 103.456 23.8633 103.956 23.05C104.456 22.23 105.133 21.59 105.986 21.13C106.839 20.67 107.803 20.44 108.876 20.44C109.943 20.44 110.903 20.67 111.756 21.13C112.616 21.59 113.296 22.23 113.796 23.05C114.296 23.8633 114.546 24.8067 114.546 25.88C114.546 26.9467 114.296 27.89 113.796 28.71C113.296 29.53 112.616 30.17 111.756 30.63C110.903 31.09 109.943 31.32 108.876 31.32ZM108.876 30.02C109.676 30.02 110.389 29.8433 111.016 29.49C111.643 29.1367 112.136 28.65 112.496 28.03C112.856 27.4033 113.036 26.6867 113.036 25.88C113.036 25.0733 112.856 24.36 112.496 23.74C112.136 23.1133 111.643 22.6233 111.016 22.27C110.389 21.9167 109.676 21.74 108.876 21.74C108.076 21.74 107.363 21.9167 106.736 22.27C106.109 22.6233 105.616 23.1133 105.256 23.74C104.896 24.36 104.716 25.0733 104.716 25.88C104.716 26.68 104.896 27.3933 105.256 28.02C105.616 28.6467 106.109 29.1367 106.736 29.49C107.363 29.8433 108.076 30.02 108.876 30.02ZM118.18 31V21.86H117.15V20.76H118.18V17.09C118.18 16.3233 118.29 15.6733 118.51 15.14C118.73 14.6067 119.05 14.2 119.47 13.92C119.89 13.64 120.407 13.5 121.02 13.5C121.4 13.5 121.754 13.5533 122.08 13.66C122.407 13.76 122.694 13.9067 122.94 14.1L122.43 15.14C122.124 14.9 121.737 14.78 121.27 14.78C120.897 14.78 120.59 14.8733 120.35 15.06C120.11 15.24 119.93 15.5 119.81 15.84C119.697 16.18 119.64 16.5833 119.64 17.05V20.76H122.25V21.86H119.64V31H118.18Z" fill="#AE7F22"/>
<path d="M33.744 95.536C24.208 95.536 17.328 93.728 13.104 90.112C8.88 86.496 6.768 80.624 6.768 72.496V44.848H24.288V68.176C24.288 73.008 24.992 76.416 26.4 78.4C27.84 80.352 30.288 81.328 33.744 81.328C37.232 81.328 39.68 80.352 41.088 78.4C42.496 76.416 43.2 73.008 43.2 68.176V44.848H60.72V72.496C60.72 80.624 58.608 86.496 54.384 90.112C50.16 93.728 43.28 95.536 33.744 95.536ZM99.42 95.536C94.044 95.536 89.212 94.384 84.924 92.08C80.636 89.776 77.244 86.656 74.748 82.72C72.284 78.784 71.052 74.336 71.052 69.376C71.052 65.696 71.756 62.288 73.164 59.152C74.572 55.984 76.54 53.216 79.068 50.848C81.596 48.448 84.54 46.592 87.9 45.28C91.292 43.968 94.956 43.312 98.892 43.312C104.012 43.312 108.492 44.384 112.332 46.528C116.204 48.64 119.228 51.6 121.404 55.408C123.58 59.184 124.668 63.568 124.668 68.56C124.668 68.976 124.652 69.36 124.62 69.712C124.62 70.064 124.572 70.768 124.476 71.824H89.1C89.1 73.808 89.564 75.536 90.492 77.008C91.42 78.48 92.732 79.632 94.428 80.464C96.124 81.264 98.124 81.664 100.428 81.664C102.572 81.664 104.444 81.264 106.044 80.464C107.644 79.632 109.34 78.272 111.132 76.384L123.708 82.672C121.404 86.704 118.092 89.856 113.772 92.128C109.484 94.4 104.7 95.536 99.42 95.536ZM89.628 62.992H107.484C107.26 61.392 106.748 60.048 105.948 58.96C105.148 57.872 104.124 57.056 102.876 56.512C101.628 55.936 100.172 55.648 98.508 55.648C96.78 55.648 95.26 55.936 93.948 56.512C92.668 57.088 91.66 57.92 90.924 59.008C90.188 60.096 89.756 61.424 89.628 62.992ZM136.877 94V11.44H154.397V62.032L172.061 44.848H194.717L170.093 69.328L195.773 94H173.309L154.397 75.952V94H136.877ZM220.37 95.536C215.858 95.536 211.762 94.416 208.082 92.176C204.402 89.904 201.474 86.8 199.298 82.864C197.122 78.896 196.034 74.384 196.034 69.328C196.034 64.432 197.074 60.032 199.154 56.128C201.234 52.192 204.098 49.072 207.746 46.768C211.394 44.464 215.602 43.312 220.37 43.312C223.474 43.312 226.418 43.84 229.202 44.896C232.018 45.952 234.402 47.44 236.354 49.36V44.848H253.874V94H236.354V88.912C234.05 91.088 231.554 92.736 228.866 93.856C226.21 94.976 223.378 95.536 220.37 95.536ZM225.65 80.704C227.826 80.704 229.746 80.224 231.41 79.264C233.074 78.272 234.37 76.928 235.298 75.232C236.226 73.536 236.69 71.6 236.69 69.424C236.69 67.248 236.21 65.312 235.25 63.616C234.322 61.92 233.026 60.592 231.362 59.632C229.698 58.64 227.794 58.144 225.65 58.144C223.538 58.144 221.634 58.64 219.938 59.632C218.274 60.592 216.946 61.92 215.954 63.616C214.994 65.312 214.514 67.248 214.514 69.424C214.514 71.568 214.994 73.504 215.954 75.232C216.914 76.928 218.226 78.272 219.89 79.264C221.586 80.224 223.506 80.704 225.65 80.704ZM270.002 94V44.848H287.522V49.84C289.634 47.824 292.114 46.24 294.962 45.088C297.81 43.904 300.802 43.312 303.938 43.312C307.714 43.312 311.058 44.144 313.97 45.808C316.882 47.472 319.17 49.776 320.834 52.72C322.53 55.632 323.378 58.976 323.378 62.752V94H305.858V66.496C305.858 63.552 305.042 61.232 303.41 59.536C301.778 57.808 299.57 56.944 296.786 56.944C294.898 56.944 293.266 57.328 291.89 58.096C290.514 58.864 289.442 59.936 288.674 61.312C287.906 62.656 287.522 64.208 287.522 65.968V94H270.002ZM338.533 94V44.848H356.053V49.84C358.165 47.824 360.645 46.24 363.493 45.088C366.341 43.904 369.333 43.312 372.469 43.312C376.245 43.312 379.589 44.144 382.501 45.808C385.413 47.472 387.701 49.776 389.365 52.72C391.061 55.632 391.909 58.976 391.909 62.752V94H374.389V66.496C374.389 63.552 373.573 61.232 371.941 59.536C370.309 57.808 368.101 56.944 365.317 56.944C363.429 56.944 361.797 57.328 360.421 58.096C359.045 58.864 357.973 59.936 357.205 61.312C356.437 62.656 356.053 64.208 356.053 65.968V94H338.533Z" fill="#03989E"/>
</svg>
