<svg width="37" height="37" viewBox="0 0 37 37" fill="none" xmlns="http://www.w3.org/2000/svg">
<g clip-path="url(#clip0_18_165)">
<path d="M10.8379 0.129659C8.86955 0.222529 7.52534 0.536659 6.35022 0.998419C5.13403 1.47239 4.10321 2.10842 3.07757 3.13776C2.05193 4.1671 1.42034 5.19866 0.949698 6.4167C0.494228 7.59441 0.185648 8.93973 0.0986979 10.9092C0.0117479 12.8787 -0.00749207 13.5118 0.00212793 18.5357C0.0117479 23.5595 0.0339479 24.1893 0.129408 26.1629C0.223388 28.1309 0.536408 29.4747 0.998168 30.6502C1.47288 31.8664 2.10817 32.8969 3.13788 33.9229C4.16759 34.9489 5.19841 35.579 6.41941 36.0504C7.59601 36.5051 8.9417 36.8152 10.9108 36.9014C12.88 36.9876 13.5138 37.0076 18.5362 36.9979C23.5585 36.9883 24.1909 36.9661 26.1641 36.8725C28.1373 36.7789 29.4741 36.4637 30.65 36.0041C31.8662 35.5283 32.8973 34.8941 33.9226 33.864C34.9479 32.834 35.5791 31.8017 36.0494 30.5829C36.5052 29.4063 36.8149 28.0606 36.9004 26.0929C36.9866 24.1182 37.0069 23.4878 36.9973 18.4646C36.9877 13.4415 36.9651 12.8118 36.8715 10.8389C36.7779 8.8661 36.4645 7.52633 36.0031 6.3501C35.5277 5.13391 34.8931 4.1042 33.8638 3.07745C32.8344 2.0507 31.8014 1.41985 30.583 0.950689C29.4057 0.495219 28.0607 0.184789 26.0916 0.0996892C24.1224 0.0145892 23.4886 -0.00724076 18.4644 0.00237924C13.4402 0.0119992 12.8112 0.0334592 10.8379 0.129659ZM11.054 33.5732C9.25028 33.4948 8.27089 33.1951 7.61821 32.9442C6.75389 32.6112 6.13821 32.2087 5.48775 31.5645C4.83729 30.9203 4.43769 30.3024 4.10025 29.4399C3.8468 28.7873 3.54155 27.809 3.45719 26.0052C3.36543 24.0557 3.34619 23.4704 3.33546 18.5312C3.32473 13.5921 3.3436 13.0075 3.42907 11.0572C3.50603 9.25497 3.80758 8.27447 4.05807 7.62216C4.39107 6.75673 4.79215 6.14216 5.4378 5.49207C6.08345 4.84198 6.6995 4.44164 7.56271 4.1042C8.21465 3.84964 9.19293 3.54698 10.9959 3.46114C12.9469 3.36864 13.5315 3.35014 18.4699 3.33941C23.4083 3.32868 23.9944 3.34718 25.9462 3.43302C27.7484 3.51146 28.7293 3.81005 29.3809 4.06202C30.2456 4.39502 30.8609 4.79499 31.511 5.44175C32.161 6.08851 32.5618 6.70234 32.8992 7.5674C33.1541 8.21749 33.4568 9.1954 33.5419 10.9995C33.6348 12.9505 33.6558 13.5355 33.6647 18.4735C33.6736 23.4115 33.6562 23.998 33.5707 25.9475C33.4919 27.7513 33.193 28.731 32.9417 29.3844C32.6087 30.2484 32.2073 30.8644 31.5613 31.5142C30.9153 32.1639 30.2999 32.5642 29.4364 32.9017C28.7852 33.1559 27.8058 33.4593 26.0042 33.5451C24.0532 33.6369 23.4686 33.6561 18.5284 33.6668C13.5882 33.6776 13.0054 33.6576 11.0544 33.5732M26.1356 8.61265C26.1363 9.05175 26.2673 9.48078 26.5118 9.84547C26.7564 10.2102 27.1037 10.4941 27.5096 10.6614C27.9156 10.8288 28.3621 10.8719 28.7926 10.7855C29.2231 10.6991 29.6183 10.4869 29.9282 10.1758C30.2382 9.86478 30.4489 9.46879 30.5337 9.03796C30.6186 8.60713 30.5738 8.16082 30.405 7.75546C30.2362 7.3501 29.9509 7.00391 29.5853 6.76067C29.2198 6.51743 28.7903 6.38807 28.3512 6.38895C27.7625 6.39013 27.1984 6.62505 26.7829 7.04205C26.3675 7.45905 26.1346 8.024 26.1356 8.61265ZM9.0009 18.5187C9.01126 23.7653 13.2722 28.0088 18.5177 27.9988C23.7632 27.9888 28.0096 23.7283 27.9997 18.4817C27.9897 13.2351 23.7276 8.99042 18.4814 9.00078C13.2352 9.01114 8.99091 13.2728 9.0009 18.5187ZM12.3331 18.512C12.3307 17.2923 12.69 16.0993 13.3656 15.0839C14.0412 14.0684 15.0028 13.2761 16.1287 12.8071C17.2546 12.3381 18.4943 12.2136 19.691 12.4491C20.8877 12.6847 21.9877 13.2699 22.8518 14.1306C23.716 14.9913 24.3055 16.089 24.5458 17.2847C24.7861 18.4805 24.6664 19.7207 24.2019 20.8484C23.7374 21.9762 22.9489 22.9409 21.9361 23.6205C20.9234 24.3001 19.7318 24.6642 18.5121 24.6666C17.7023 24.6683 16.9 24.5104 16.1511 24.202C15.4023 23.8936 14.7215 23.4407 14.1477 22.8692C13.574 22.2977 13.1184 21.6187 12.807 20.8711C12.4957 20.1235 12.3346 19.3219 12.3331 18.512Z" fill="white"/>
</g>
<defs>
<clipPath id="clip0_18_165">
<rect width="37" height="37" fill="white"/>
</clipPath>
</defs>
</svg>
