<svg width="37" height="37" viewBox="0 0 37 37" fill="none" xmlns="http://www.w3.org/2000/svg">
<path d="M1.63429 34.9049H8.75773C9.13485 34.9049 9.47007 34.6954 9.67959 34.402L29.29 2.17894C29.5414 1.75991 29.2481 1.25708 28.7453 1.25708H21.999C21.6637 1.25708 21.3704 1.42469 21.2028 1.71801L1.29906 34.3182C1.17336 34.5697 1.34097 34.9049 1.63429 34.9049Z" fill="white"/>
<path d="M26.1891 34.4021L35.4496 19.5266C35.7429 19.0657 35.4077 18.4791 34.863 18.4791H28.1585C27.9071 18.4791 27.6557 18.6048 27.53 18.8143L18.0181 34.0249C17.7667 34.4021 18.06 34.9049 18.5209 34.9049H25.3511C25.6863 34.9049 26.0215 34.7373 26.1891 34.4021Z" fill="white"/>
</svg>
